<?xml version="1.0" encoding="utf-8"?>
<!-- Generator: Adobe Illustrator 25.2.3, SVG Export Plug-In . SVG Version: 6.00 Build 0)  -->
<svg version="1.1"
	 id="svg8" xmlns:cc="http://creativecommons.org/ns#" xmlns:dc="http://purl.org/dc/elements/1.1/" xmlns:inkscape="http://www.inkscape.org/namespaces/inkscape" xmlns:rdf="http://www.w3.org/1999/02/22-rdf-syntax-ns#" xmlns:sodipodi="http://sodipodi.sourceforge.net/DTD/sodipodi-0.dtd" xmlns:svg="http://www.w3.org/2000/svg"
	 xmlns="http://www.w3.org/2000/svg" xmlns:xlink="http://www.w3.org/1999/xlink" x="0px" y="0px" viewBox="0 0 595.3 841.9"
	 style="enable-background:new 0 0 595.3 841.9;" xml:space="preserve">
<style type="text/css">
	.st0{fill:#174420;}
	.st1{fill:#E52825;}
	.st2{fill:#2E4731;}
	.st3{fill:#478C33;}
</style>
<sodipodi:namedview  bordercolor="#666666" borderopacity="1.0" id="base" inkscape:current-layer="layer1" inkscape:cx="168.58898" inkscape:cy="438.72754" inkscape:document-rotation="0" inkscape:document-units="mm" inkscape:pageopacity="0.0" inkscape:pageshadow="2" inkscape:window-height="1017" inkscape:window-maximized="1" inkscape:window-width="1920" inkscape:window-x="-8" inkscape:window-y="-8" inkscape:zoom="0.98994949" pagecolor="#ffffff" showgrid="false">
	</sodipodi:namedview>
<path id="path2292" class="st0" d="M219.3,370.5c-0.7,0-1.3,0-1.8,0c-2.8,0.2-5.2,0.7-7.3,1.6c-1.5,0.6-3.3,1.7-4.8,2.8
	c-2.4,1.8-4.8,4.3-6.5,6.8l-0.3,0.5l0.1,0c0.6,0.1,1.9,0.3,1.9,0.2c0,0,0.1,0,0.1,0c0,0,0.5,0.1,1.3,0.1c0.6,0,3,0,3.6-0.1
	c3-0.3,5.5-1,8.2-2.2c2.6-1.2,5-2.9,7.1-5.2c0.9-0.9,1.7-1.9,2.5-2.8c0.4-0.5,1-1.5,1-1.5c0,0-1.4-0.2-1.9-0.3
	C221.6,370.6,220.4,370.5,219.3,370.5L219.3,370.5z M185.8,384.5c-2,0-3.9,0.3-5.7,0.7c-3.3,0.9-6.7,2.8-9.6,5.3
	c-0.9,0.8-2.5,2.4-2.5,2.5c0,0,0.6,0.2,1.3,0.4l0.6,0.2l0.1-0.1c0.7-1,1.5-1.6,2.6-1.9c0.5-0.1,1.4-0.2,1.9-0.1
	c1.2,0.2,2.2,0.8,2.9,1.7c0.2,0.3,0.6,1.1,0.6,1.2c0,0.1,0.2,0,1.3-0.1c1.6-0.1,3.2-0.5,4.7-0.9c0.5-0.1,0.5-0.2,0.4-0.2
	c-0.7-0.3-1.2-0.6-1.7-1.1c-0.6-0.6-1-1.4-1.2-2.3c-0.1-0.4-0.1-1.2,0-1.6c0.2-1.2,0.9-2.2,1.9-2.9c0.7-0.5,1.4-0.7,2.2-0.7
	c1.3-0.1,2.6,0.4,3.5,1.4c0.4,0.4,0.6,0.7,0.9,1.2c0.4,0.9,0.5,1.9,0.3,2.8c0,0.1-0.1,0.2,0,0.2c0,0,1-0.7,1.4-1c1-0.8,2-1.7,3-2.7
	l0.7-0.7l-0.1-0.1c-0.5-0.2-2.1-0.6-3.2-0.8C189.9,384.7,187.8,384.5,185.8,384.5L185.8,384.5z M200.3,384.9c-0.1,0-1.2,1.5-1.7,2.3
	c-0.9,1.3-1.8,2.9-2.4,4.3c-1.2,2.7-1.9,5.6-2.2,8.6c-0.1,0.8,0,2.7,0.1,3.6c0.3,3,1.1,6.1,2.4,8.8c0.1,0.2,0.2,0.4,0.2,0.4
	c0.1,0,0.9-1,1.3-1.6c2.8-3.7,4.5-7.9,5-12c0.4-3.9-0.3-8.3-1.9-12.5C200.8,386.1,200.3,384.9,200.3,384.9L200.3,384.9z M415,384.9
	c-0.7,0-1.9,0-2.5,0.1c-3.9,0.3-7.3,1.2-10.2,2.7c-3.2,1.6-6.3,4.6-8.7,8.1c-0.9,1.3-2,3.3-1.9,3.3c0,0,0.2,0.1,0.3,0.1
	c0.3,0.1,0.6,0.1,1.9,0.1c2.3-0.1,4.3-0.4,6.4-1c0.4-0.1,0.7-0.2,0.7-0.2c0,0,0.2-0.2,0.3-0.5c2.3-3.7,5.1-6.8,8.3-8.9
	c1.3-0.9,3-1.7,4.7-2.3c0.4-0.1,0.8-0.3,0.8-0.3c0.1,0,0.7-1.1,0.7-1.2C415.8,385,415.5,384.9,415,384.9L415,384.9z M425.1,386.1
	l-1.2,0c-2.3,0-4.2,0.3-6.4,0.8c-2.6,0.6-5.3,1.7-7.2,3c-3.3,2.2-6.2,5.4-8.3,9.4c-0.5,0.8-0.8,1.5-0.7,1.6c0.1,0,1.2,0,2.1,0
	c2.9-0.2,5.6-0.7,8.1-1.6c2.3-0.9,4.5-2.1,6.5-3.7c2.7-2.2,5.1-5.2,6.8-8.5C424.9,386.7,425.1,386.3,425.1,386.1L425.1,386.1z
	 M222,389c-0.1,0-0.1,0-0.1,0c0,0,0.1,0.4,0.3,0.7c1.1,2.8,2.7,5.6,4.4,7.8c1.2,1.5,2.8,3.1,4.1,4c3.1,2.2,7,3.7,11.3,4.3
	c0.6,0.1,1.6,0.2,2.1,0.2c0.1,0,0.2,0,0.2,0c0,0-0.1-0.3-0.2-0.6c-1.8-4.7-4.9-8.8-8.4-11.6C232.1,391.2,227.4,389.5,222,389
	C222.1,389,222.1,389,222,389L222,389z M424.2,390.7c-0.1,0-0.1,0-0.1,0c-0.1,0.1-0.8,1.1-1.2,1.6c-0.3,0.4-1,1.2-1.3,1.5
	c-0.1,0.1-0.1,0.1,0.3,0.7c2.8,4.4,6.2,7.5,10.7,9.4c2.8,1.2,6.2,2.1,9.4,2.2c0.3,0,0.6,0,0.7,0l0.2,0l-0.1-0.2
	c-0.5-1.3-1.5-3.2-2.4-4.7c-1.6-2.6-3.8-4.9-6-6.6c-2.3-1.7-5.4-3.1-8.8-3.9C424.8,390.8,424.3,390.7,424.2,390.7L424.2,390.7z
	 M445.2,391.2c-1.4,0-2.8,0.1-4.2,0.3c-0.6,0.1-1.7,0.3-1.8,0.3c-0.1,0,0,0.2,0.6,0.9c2.5,3.2,5.7,5.9,8.9,7.5l0.4,0.2l0.8,0
	c3,0.1,6.7,0.9,9.5,2c0.4,0.2,0.5,0.2,0.8,0.2c0.8,0,2.4-0.1,3.6-0.3c0.7-0.1,1.9-0.3,1.9-0.4c0,0-0.4-0.6-0.9-1.2
	c-1.2-1.5-2.8-3.1-4.4-4.3c-2.7-2.2-5.5-3.6-8.6-4.4C449.8,391.5,447.5,391.2,445.2,391.2L445.2,391.2z M450.7,401.9
	C450.7,401.9,450.7,401.9,450.7,401.9c-0.1,0.1,0.3,1,0.6,1.6c1.5,3.6,3.6,6.7,6.1,9.1c1.2,1.2,2.1,1.9,3.5,2.7
	c3.2,1.9,7.1,3.2,11.3,3.7c0.7,0.1,0.9,0.1,0.9,0.1c0,0-0.2-0.5-0.4-1c-1.2-3-2.8-5.7-4.9-8.1c-0.5-0.6-1.8-1.9-2.4-2.4
	c-3.2-2.7-7.4-4.6-12.3-5.4C452.2,402,451,401.8,450.7,401.9L450.7,401.9z M383.7,407.5c-1,0-1.9,0-2.3,0.1c-1.9,0.2-3.8,0.5-5.4,1
	c-2.9,0.9-5.9,2.7-8.4,4.9c-0.6,0.5-1.8,1.7-2.3,2.3c-0.8,0.9-1.9,2.3-1.9,2.4c0,0,1.2,0.2,1.9,0.4c0.8,0.1,2.1,0.2,2.9,0.3l0,0
	c5.1,0.2,9.6-0.8,13.5-3.2c1.3-0.8,2.8-1.9,4-3c0.5-0.4,1.7-1.7,2.2-2.2c0.7-0.8,1.9-2.3,1.9-2.4c0-0.1-2-0.4-3.7-0.6
	C385.7,407.5,384.7,407.5,383.7,407.5L383.7,407.5z M151.1,407.7c-0.6,0-1.1,0-1.5,0c-0.9,0.1-1.8,0.2-2.4,0.3
	c-4.3,0.9-8.7,3.2-12.3,6.5l-0.3,0.3l0.5,0.2c2.8,1.2,6.1,1.9,9.1,2c0.4,0,0.8,0,0.8,0c0.3,0,1.9-0.1,2.5-0.1c1-0.1,2.3-0.3,3.2-0.5
	c3.4-0.8,6.9-2.6,9.9-5.1c0.6-0.5,1.6-1.4,1.6-1.4c0-0.1-2.1-0.8-3.4-1.2c-1.6-0.5-3.4-0.8-5.1-0.9
	C153.3,407.8,152.1,407.7,151.1,407.7L151.1,407.7z M361.7,410.9c-0.2,0-0.4,0-0.6,0c-2.3,0-3.9,0.3-6,0.9c-3.5,1-6.8,2.9-10,5.8
	c-0.6,0.5-1.8,1.8-1.8,1.8c0,0,1.7,0.6,2.4,0.7c0.2,0,0.3,0,0.8-0.1c1.2-0.4,2.9-0.7,4.4-0.9c2.8-0.3,6-0.2,8.8,0.3l0.5,0.1l0.6-0.2
	c0.3-0.1,0.6-0.2,0.5-0.2c-0.1,0,0-0.1,0.2-0.5c1.4-2.2,3.7-4.8,6-6.7c0.2-0.2,0.4-0.3,0.4-0.4c0,0-1.6-0.3-2.2-0.4
	C364.1,410.9,363.1,410.9,361.7,410.9L361.7,410.9z M396.3,411.3c-0.6,0-1.7,0-2.3,0.1c-1.8,0.1-3.9,0.4-5.6,0.9l-0.4,0.1l-0.5,0.5
	c-3,2.9-6.6,5.1-10.1,6.2l-0.3,0.1l-0.5,0.5c-1.2,1.4-2.4,3.2-3.3,4.8c-0.3,0.5-0.6,1.2-0.6,1.2c0,0,0.5,0,1,0
	c5.3,0,10.5-1.4,14.2-3.8c1.9-1.3,3.8-3,5.4-4.9c1.3-1.6,2.6-3.5,3.4-5.3l0.2-0.5l-0.2,0C396.6,411.3,396.4,411.3,396.3,411.3
	L396.3,411.3z M130.9,412.9c-1,0-2.1,0-2.6,0.1c-3.6,0.4-6.9,1.6-10.1,3.6c-1,0.7-2.4,1.7-3.4,2.5c-0.9,0.8-2.4,2.3-2.3,2.3
	c0,0,0.4,0.1,0.8,0.3c2.1,0.6,4.4,1.1,6.5,1.2c0.7,0,2.7,0.1,3.4,0c1.2-0.1,2.3-0.3,3.4-0.5c2.9-0.7,6-2.1,8.8-4.1
	c0.8-0.5,1.5-1.1,1.5-1.1c0,0-0.1,0-0.3-0.1c-0.4-0.1-1.6-0.6-2.3-0.8c-0.7-0.3-1.9-0.9-1.9-0.9c0-0.1,1-1.1,1.6-1.6
	c0.3-0.3,0.6-0.5,0.6-0.5c0,0-1.4-0.2-2.1-0.2C132,412.9,131.5,412.9,130.9,412.9L130.9,412.9z M502.8,413.5c-0.9,0-1.8,0-2.2,0.1
	c-1.3,0.1-2.6,0.3-3.9,0.7c-0.7,0.2-2.1,0.6-2.7,0.8l-0.3,0.1l0.5,0.1c0.9,0.2,1.6,0.6,2.2,1.2c0.4,0.4,0.8,0.9,0.9,1.3l0.1,0.2
	l0.4,0c3.6,0.4,7.4,1.4,10.3,2.9c0.3,0.2,0.6,0.3,0.6,0.3c0.1,0,1.4-0.5,2-0.7c1.2-0.5,3-1.3,4.1-2c0.8-0.4,1.7-1,1.7-1
	c0-0.1-1.4-0.9-2.5-1.4c-3-1.5-6-2.4-9.1-2.7C504.6,413.5,503.7,413.5,502.8,413.5L502.8,413.5z M489.3,417.4
	C489.3,417.4,489.3,417.4,489.3,417.4c-0.2,0.1-1,0.6-1,0.6c0,0,0.1,0.1,0.3,0.2c0.1,0.1,0.3,0.2,0.3,0.2c0,0,0.1-0.1,0.1-0.2
	c0-0.1,0.1-0.4,0.2-0.5C489.3,417.4,489.3,417.4,489.3,417.4L489.3,417.4z M462.4,417.6l0.1,0.1c0.2,0.3,0.7,1.2,1.1,1.8
	c1.6,2.4,3.6,4.5,5.7,6.1c3.6,2.7,8.2,4.4,13.4,4.7c0.7,0,1.7,0.1,1.7,0c0-0.1-0.5-1.1-0.9-1.9c-2-3.8-4.6-7-7.7-9.2
	c-0.4-0.3-1.5-1-1.5-1c0,0,0.1,0.2,0.2,0.5c0.2,0.7,0.5,1.7,0.5,1.7c0,0-0.4,0-0.9,0c-3.6-0.1-7.8-1.1-11.1-2.6L462.4,417.6z
	 M497.8,419.5C497.8,419.5,497.8,419.5,497.8,419.5c0,0-0.1,0.2-0.1,0.4l0,0.4l0.3,0.6c1.7,4.1,4.2,7.7,7.1,10.2
	c3.4,2.9,8.7,5,14.1,5.6c0.3,0,0.5,0,0.5,0c0,0-0.1-0.2-0.2-0.5c-1.1-3-2.8-5.8-4.8-8.3c-0.6-0.7-2.2-2.3-2.8-2.9
	c-1.4-1.2-2.7-2-4.4-2.8c-2.2-1.1-4.4-1.8-6.9-2.3C499.7,419.7,498,419.5,497.8,419.5L497.8,419.5z M353.9,420.4c-0.8,0-1.6,0-2,0
	c-3.4,0.3-6,1-8.7,2.3c-3.1,1.6-6.1,4-8.6,7c-0.4,0.5-1.1,1.4-1,1.4c0,0,0.7,0.2,1.4,0.3c0.7,0.1,1.7,0.2,2.4,0.3
	c0.3,0,0.6,0,0.7,0.1l0,0c0.5,0,3.5,0,4.1-0.1c5.3-0.5,9.5-2.4,13.6-6c1.3-1.1,3-3,4-4.4c0.3-0.4,0.3-0.4-0.4-0.5
	c-1-0.2-2-0.3-3.4-0.4C355.5,420.4,354.7,420.4,353.9,420.4L353.9,420.4z M239.1,421.6c-0.7,0-1.3,0-1.4,0c0,0,0.5,1,0.9,1.7
	c2.8,4.6,6.5,8.1,10.8,10.1c2.9,1.4,6.3,2.2,10,2.3c0.7,0,2.8,0,2.9,0c0,0-0.8-1.6-1.4-2.5c-3.1-4.8-7.3-8.3-12.1-10.1
	c-2.4-0.9-4.8-1.4-7.8-1.6C240.6,421.7,239.8,421.6,239.1,421.6L239.1,421.6z M292.7,422.8c-0.9,0-1.8,0-2.3,0.1
	c-3,0.3-5.8,1-8.6,2.2c-0.6,0.2-1.1,0.5-1.1,0.5c0,0,1,0.8,1.5,1.2c1.2,0.9,3.1,2.1,3.3,2c0.3-0.1,0.9-0.2,1.3-0.2
	c1.3,0,2.4,0.5,3.3,1.4c0.3,0.3,0.8,1,0.8,1.1c0,0.1,0.2,0.1,0.9,0.3c1.2,0.3,2.1,0.5,3,0.5c0.3,0,0.6,0.1,0.7,0.1l0,0
	c0.4,0,3.1,0,3.7-0.1c3.2-0.3,6.4-1.2,9.2-2.5c0.4-0.2,0.4-0.2,0.4-0.3c-0.4-0.4-1.7-1.3-2.5-1.9c-3.6-2.5-7.3-3.9-11.2-4.4
	C294.4,422.8,293.6,422.8,292.7,422.8L292.7,422.8z M130.8,424.1c-1.5,0-1.9,0-3,0.2c-3.6,0.5-7.2,2-10.7,4.3
	c-0.7,0.5-1.5,1.1-2,1.5l-0.3,0.2l0.4,0.2c1.8,0.9,4.2,1.7,6.3,2.2c1.1,0.3,2.5,0.5,3.6,0.5c0.6,0,2.3,0.1,3,0
	c0.3,0,0.9-0.1,1.2-0.1c2.2-0.3,4.5-0.9,6.7-1.9c1.4-0.6,3.9-2,4-2.2c0-0.1,0.2-0.5,0.5-1c0.2-0.5,0.5-1.1,0.7-1.3l0.2-0.4l-0.2-0.1
	c-2.1-0.9-4.6-1.6-6.9-2C133,424.2,132.4,424.1,130.8,424.1L130.8,424.1z M267,424.4c-2.4,0-4.9,0.3-7.3,1c-0.6,0.2-1.6,0.5-1.7,0.5
	c0,0,1,1.1,1.7,1.8c2.9,2.6,6,4.5,9.2,5.6c1.8,0.6,3.5,0.9,5.8,1.1c0.5,0,3.3,0,3.9-0.1c1.3-0.1,2.9-0.4,3.6-0.5l0.1,0l0-0.5
	c0-0.3,0-0.6,0-0.8c0.1-0.4,0.3-1.1,0.5-1.5l0.2-0.3l-0.3-0.2c-0.7-0.6-1.7-1.3-2.7-2c-1.9-1.3-3.9-2.2-5.9-2.9
	c-0.8-0.3-2.3-0.6-3-0.8C269.8,424.5,268.4,424.4,267,424.4L267,424.4z M551.9,428.8c-0.8,0-1.5,0.1-2.2,0.1c-1.3,0.1-2.8,0.5-4.3,1
	c-3.2,1.1-6.4,3-9.2,5.3c-0.4,0.4-0.5,0.3,0.5,0.7c3.1,1.3,6.4,2,9.5,2.2c1.8,0.1,3.7,0,5.1-0.3c3.7-0.7,7.3-2.4,10.7-4.9
	c0.9-0.7,1.9-1.5,1.8-1.5c-0.1-0.1-1-0.4-1.8-0.7C558.7,429.4,555.2,428.8,551.9,428.8L551.9,428.8z M67.8,428.9c-0.5,0-0.9,0-1.2,0
	c-3.6,0.3-7.2,1.4-10.8,3.3l-0.5,0.3L56,433c1.8,1.2,3.4,2.5,4.9,4c0.7,0.7,0.5,0.6,1.6,0.8c0.5,0.1,0.8,0.1,1.8,0.2
	c0.5,0,2.8,0,3.3-0.1c1.4-0.2,2.7-0.4,4.1-0.9c1-0.3,1.6-0.5,1.9-0.7c0.4-0.3,0.6-0.4,1-0.5c0.3-0.1,0.8-0.3,1-0.3
	c0.2,0,1.4-0.7,2.6-1.4c1-0.6,2.4-1.6,2.4-1.7c0-0.1-1.3-0.7-2.1-1.1c-2.8-1.3-5.5-2-8.5-2.3C69.5,429,68.6,429,67.8,428.9
	L67.8,428.9z M346.3,432.3l-0.6,0.1c-1.8,0.4-3.4,0.6-5.5,0.6c-2,0-3.7-0.1-5.6-0.4l-0.6-0.1l-0.9,0.3c-0.7,0.2-1,0.4-1.6,0.7
	c-1,0.5-1.8,0.9-2.5,1.2c-0.8,0.3-1.3,0.7-2.3,1.3c-0.8,0.5-1.9,1.3-1.9,1.4c0,0.1,1.4,0.8,2.3,1.1c2.8,1.2,5.9,1.9,8.7,2.1
	c4,0.2,7.8-0.6,11.7-2.6c1-0.5,1.8-1,2.8-1.7c0.8-0.5,1.9-1.3,2.2-1.6l0.2-0.2l-0.7-0.3c-1.6-0.8-3.3-1.4-5.1-1.9L346.3,432.3z
	 M115.4,434.4c-0.9,0-1.8,0-2.4,0.1c-2.1,0.3-4,0.7-6.1,1.5l-0.5,0.2l-0.4,0.4c-0.5,0.6-1.8,1.8-2.4,2.4c-0.5,0.4-1.8,1.5-2,1.6
	l-0.1,0.1l0.2,0.1c0.6,0.3,2.1,0.9,3.2,1.2c2.3,0.8,4.8,1.2,6.9,1.3c0.6,0,2,0,2.5,0c2.1-0.2,4.3-0.7,6.4-1.5
	c2.4-0.9,5.1-2.3,7.1-3.8c0.2-0.1,0.2-0.2,0.2-0.2c-0.1-0.1-1.5-0.8-2.1-1.1c-3-1.4-6-2.1-9.1-2.4
	C116.4,434.4,115.9,434.4,115.4,434.4L115.4,434.4z M95.7,434.5c-1.8,0-3.5,0.2-5.1,0.5c-3.1,0.7-6.3,2.2-9.3,4.4l-0.5,0.4l0,0.4
	c-0.1,0.7-0.3,1.4-0.7,2c-0.2,0.4-0.7,0.9-1.1,1.1c-0.1,0.1-0.2,0.2-0.2,0.2c0,0,1,0.3,1.6,0.4c1.4,0.3,3.1,0.5,4.6,0.6
	c0.7,0,2.6,0,3.3,0c1.3-0.1,2.4-0.3,3.5-0.6c4.2-1,8.6-3.6,12.2-7.2l0.7-0.7l-0.2-0.1c-0.1,0-0.5-0.2-0.9-0.3
	C101,434.9,98.3,434.5,95.7,434.5L95.7,434.5z M14.3,436.9c-1.8,0-3.6,0.2-5.4,0.6c-0.5,0.1-1.6,0.4-1.6,0.4c0,0,0.1,0.1,0.2,0.3
	c3.6,4.3,8.1,7.3,12.7,8.6c1.4,0.4,3.1,0.7,4.5,0.8c0.3,0,0.7,0.1,0.8,0.1l0,0c0.1,0,0.8,0,1.6,0c1.8,0,2.8-0.1,4.5-0.4
	c0.7-0.1,2.2-0.4,2.4-0.5c0.1,0,0.1-0.1-0.3-0.5c-0.9-1.1-2.3-2.5-3.3-3.4c-3.1-2.7-6.3-4.5-9.4-5.3
	C18.8,437.1,16.6,436.9,14.3,436.9L14.3,436.9z M514.6,437.2c0,0,0,0.4,0,0.8c0.3,5.4,1.9,9.8,4.9,13.6c2.1,2.6,4.8,4.9,7.8,6.7
	c0.3,0.2,0.6,0.3,0.6,0.3c0.1,0,0.1-3,0-4.4c-0.3-3.4-1-6.4-2.3-9.1c-1-2.2-2.6-4.4-4.6-6.4c-0.6-0.6-0.6-0.6-0.8-0.6
	c-1.8-0.1-3.2-0.3-4.9-0.7C515,437.3,514.6,437.2,514.6,437.2L514.6,437.2z M533,438.7c0,0,0,0.3-0.1,0.5c-0.2,2.4,0,5,0.5,7.4
	c0.8,3.8,2.2,6.9,4.5,9.8c0.7,0.8,1.1,1.3,1.9,2.1c1.8,1.8,3.7,3.2,6,4.5c0.3,0.1,0.5,0.3,0.5,0.3c0.1,0,0.1-0.4,0.1-1.6
	c0.1-4.6-0.8-9-2.6-12.6c-0.4-0.7-1.1-1.9-1.7-2.8c-2.1-2.9-5.1-5.5-8.5-7.4C533.3,438.9,533,438.7,533,438.7L533,438.7z
	 M549.8,442.7c-0.3,0-0.6,0-0.9,0c-2,0-3.9,0.2-5.5,0.6l-0.1,0l0.3,0.3c1.4,1.9,3.2,3.7,5,5.2c4.1,3.3,8.4,4.9,13.7,5.2
	c0.8,0,2.7,0,3.5,0c0.7-0.1,1.8-0.2,2.5-0.3c0.9-0.1,1.6-0.3,1.6-0.3c0,0-0.1-0.2-0.2-0.4c-2.7-3.5-5.9-6.2-9.4-8
	c-1.7-0.8-3.2-1.4-5-1.8C553.4,442.9,551.8,442.7,549.8,442.7L549.8,442.7z"/>
<path id="path2290" class="st1" d="M433.6,382.7c-0.5,0-0.9,0.1-1.3,0.3c-0.4,0.2-0.8,0.5-1.1,0.9c-0.4,0.6-0.6,1.1-0.6,1.8
	c0,0.8,0.3,1.5,0.8,2c0.5,0.5,0.9,0.7,1.5,0.9c0.2,0.1,0.4,0.1,0.9,0.1c0.5,0,0.6,0,0.9-0.1c0.5-0.2,0.9-0.4,1.3-0.8
	c0.6-0.6,0.8-1.2,0.8-2.1c0-0.8-0.3-1.5-0.9-2.1C435.2,382.9,434.6,382.7,433.6,382.7L433.6,382.7z M185.8,386c-0.5,0-1,0.2-1.5,0.4
	c-0.3,0.2-0.9,0.7-1.1,1c-0.5,0.9-0.6,1.9-0.1,2.8c0.4,0.8,1.1,1.4,2,1.7c0.2,0.1,0.4,0.1,0.8,0.1c0.6,0,0.9-0.1,1.3-0.3
	c0.8-0.4,1.4-1.1,1.7-2c0.1-0.5,0.1-1.1-0.1-1.6c-0.4-1.1-1.3-1.9-2.6-2.1C186.2,386,186,386,185.8,386L185.8,386z M173.8,392.8
	c-0.8,0-1.6,0.3-2.2,0.9c-0.4,0.4-0.6,0.7-0.7,1.1c-0.4,1.2-0.1,2.4,0.8,3.3c0.3,0.3,0.9,0.6,1.4,0.7c0.4,0.1,1.2,0.1,1.5,0
	c1-0.3,1.8-1,2.2-2c0.5-1.5-0.3-3.1-1.8-3.7C174.6,392.9,174.2,392.8,173.8,392.8L173.8,392.8z M181.9,396.9c-0.6,0-1.1,0.1-1.6,0.4
	c-0.3,0.2-0.9,0.7-1,1c-0.3,0.5-0.5,1.1-0.4,1.7c0,0.5,0.1,0.7,0.3,1.2c0.2,0.3,0.2,0.4,0.6,0.8c0.3,0.3,0.5,0.4,0.7,0.5
	c0.3,0.2,0.6,0.3,0.9,0.3c0.5,0.1,1.1,0,1.7-0.2c1-0.3,1.8-1.2,2-2.2c0.1-0.4,0.1-1.2-0.1-1.5c-0.4-1.1-1.3-1.9-2.4-2.1
	C182.2,396.9,182,396.9,181.9,396.9L181.9,396.9z M397.7,401.6c-0.8,0-1.5,0.3-2.1,0.9c-0.8,0.8-1.1,2-0.8,3.1c0.3,1,1.2,1.8,2.3,2
	c0.8,0.2,1.7,0,2.4-0.5c1.6-1.1,1.8-3.3,0.5-4.6c-0.6-0.6-1.2-0.9-2.1-0.9C397.8,401.6,397.8,401.6,397.7,401.6L397.7,401.6z
	 M481,413.1c-0.5,0-0.9,0.1-1.3,0.3c-1.4,0.7-2,2.3-1.6,3.7c0.4,1,1.3,1.9,2.4,2c0.3,0,0.8,0,1.1,0c1.1-0.2,2-1,2.3-2
	c0.2-0.5,0.2-1.1,0.1-1.6C483.7,414.1,482.5,413.1,481,413.1L481,413.1z M493.1,416.5c-0.2,0-0.4,0-0.6,0c-1.4,0.3-2.4,1.6-2.4,3
	c0,1.5,1.2,2.8,2.7,3c1.3,0.2,2.6-0.5,3.2-1.6c0.2-0.5,0.3-0.8,0.3-1.4c0-0.4,0-0.6-0.1-0.8c-0.3-1-1.1-1.8-2.2-2.1
	C493.8,416.5,493.4,416.5,493.1,416.5L493.1,416.5z M286.8,430c-0.4,0-0.7,0.1-1.1,0.2c-0.6,0.2-1.2,0.7-1.6,1.2
	c-0.7,1-0.6,2.3,0.1,3.3c0.2,0.2,0.6,0.6,0.8,0.8c0.2,0.2,0.7,0.4,1,0.4c1.1,0.3,2.4-0.1,3.1-0.9c1.4-1.5,0.9-3.8-0.9-4.7
	C287.7,430.2,287.3,430,286.8,430L286.8,430z M76.3,436.8c-0.4,0-0.6,0-0.8,0.1c-0.5,0.2-0.9,0.4-1.3,0.8c-0.5,0.5-0.7,0.9-0.9,1.5
	c-0.3,1.6,0.7,3.2,2.4,3.6c0.3,0.1,1.1,0.1,1.5,0c1.1-0.3,1.9-1,2.2-2c0.1-0.3,0.1-0.4,0.1-0.9c0-0.5,0-0.6-0.1-0.9
	c-0.2-0.5-0.3-0.8-0.8-1.2c-0.3-0.3-0.4-0.4-0.8-0.6C77.2,436.9,76.9,436.8,76.3,436.8L76.3,436.8z"/>
<path id="path2288" class="st2" d="M423.8,375.2c-0.8,0-1.5,0-1.5,0c0,0,0.1,0.2,0.2,0.5c1.7,3.1,4,5.7,6.5,7.8
	c0.4,0.3,0.5,0.4,0.5,0.3c0,0,0.1-0.2,0.2-0.3c1-1.6,2.7-2.5,4.6-2.2c1.8,0.3,3.2,1.5,3.7,3.3c0.1,0.4,0.1,0.5,0.1,1.1
	c0,0.6,0,0.7-0.1,1.1c-0.1,0.2-0.2,0.6-0.3,0.8c-0.1,0.2-0.2,0.4-0.2,0.4c0,0,1,0.2,1.5,0.4c1.3,0.3,3.1,0.5,4.6,0.6
	c0.7,0,2.7,0,3.2,0l0.3,0l-0.1-0.2c-0.4-0.7-1.4-2.3-2.1-3.3c-1.8-2.4-4-4.5-6.2-6c-3.7-2.5-7.9-3.8-13-4.1
	C425.5,375.2,424.6,375.2,423.8,375.2L423.8,375.2z M213.4,386.9c0,0-0.1,0.1-0.3,0.9c-1,4-1.1,8-0.4,11.6c0.3,1.4,0.8,3.2,1.4,4.6
	c0.3,0.7,0.9,1.8,1.3,2.5c1.5,2.5,3.6,5.1,5.9,7c0.2,0.2,0.4,0.3,0.4,0.3c0,0,0.3-1.1,0.5-1.8c0.4-1.7,0.5-3.3,0.6-5
	c0.1-2.7-0.2-5.1-0.8-7.4c-0.8-3-2.5-6.1-4.8-8.8C216,389.4,214.6,387.9,213.4,386.9C213.4,386.9,213.4,386.9,213.4,386.9
	L213.4,386.9z M191.7,393.3c-0.1,0-0.4,0.2-1.1,0.6c-1.1,0.7-2.1,1.4-3.1,2.2c-0.6,0.5-1.7,1.4-1.7,1.5c0,0,0.1,0.2,0.2,0.4
	c0.2,0.5,0.3,0.8,0.4,1.3c0.1,0.5,0.1,0.8,0,1.3c-0.3,2-2,3.5-4.1,3.7c-0.4,0-1.1,0-1.4-0.1l-0.1,0l-0.3,0.5c-0.9,2-1.7,4.4-2,6.8
	c-0.2,1.3-0.3,2.6-0.3,4c0,1,0,2.1,0.1,2.5h0l0,0.1l0.2-0.1c0.9-0.5,1.4-0.8,2-1.2c3.5-2.3,6.2-5.1,8.1-8.4c1.8-3.1,3-7.5,3.1-11.9
	C191.8,395.6,191.8,393.4,191.7,393.3C191.7,393.3,191.7,393.3,191.7,393.3L191.7,393.3z M163.2,396.3c-1.9,0-3.7,0.2-5.6,0.7
	c-3.6,0.9-7.3,2.9-10.4,5.5l-0.5,0.4l0.3,0.2c1.1,0.5,2.5,1,3.7,1.4c2.1,0.6,4,1,6.2,1.2c0.1,0,0.8,0,1.6,0c1.5,0,2.2-0.1,3.4-0.3
	c3.6-0.6,7.4-2.3,10.8-4.7l0.6-0.4l-0.3,0c-1.4-0.3-2.6-1.2-3.3-2.5c-0.1-0.2-0.2-0.4-0.2-0.5c-0.1-0.1-1.5-0.4-2.8-0.6
	C165.5,396.4,164.3,396.3,163.2,396.3L163.2,396.3z M476.8,405c-3.1,0-6.4,0.6-9.5,1.7l-0.7,0.2l0.9,0.9c0.5,0.5,1.1,1.1,1.2,1.3
	c0.3,0.4,0.5,0.5,1.4,1.2c1.6,1.1,3.2,1.9,4.9,2.6c0.7,0.3,2,0.7,2.1,0.7c0,0,0.1-0.1,0.2-0.1c0.1-0.1,0.2-0.3,0.4-0.5
	c0.9-0.9,2.1-1.4,3.4-1.3c1.2,0.1,2.3,0.6,3.1,1.4c0.3,0.4,0.6,0.7,0.8,1.1l0.1,0.3l0.5,0c2.4-0.2,5.5-0.9,8-1.8l0.3-0.1l-0.1-0.1
	c-0.7-0.8-2.5-2.2-3.8-3.1c-3.1-2.1-6.6-3.6-9.7-4.1C479.2,405,478,404.9,476.8,405L476.8,405z M228.6,408.7l-0.2,0.5
	c-1.3,3.9-1.7,8-1.2,11.6c0.7,4.6,2.8,9.2,6.1,13.1c0.3,0.3,0.5,0.5,0.5,0.5c0,0,0.1-0.1,0.1-0.1c0-0.1,0.2-0.4,0.3-0.7
	c0.6-1.5,1.3-3.5,1.6-5.2c0.7-3.6,0.7-6.9-0.1-10.2c-0.3-1.1-0.2-1-0.7-1.4c-0.6-0.5-1.8-1.7-2.4-2.4c-1.4-1.6-2.7-3.3-3.7-5.2
	L228.6,408.7z M252.4,410.1c-0.6,0-1,0-1,0c-0.1,0.1,0.3,0.8,0.9,1.8c2.4,4,5.5,7.2,9.1,9.2c1.2,0.7,2.7,1.3,3.8,1.8l0.4,0.1l1.2,0
	c2.8,0,5.1,0.3,7.7,1.2l0,0c0.5,0.2,0.6,0.2,0.9,0.2c0.2,0,0.3,0,0.3,0c0,0-0.7-1.4-1.1-2c-1.8-3-4.1-5.6-6.6-7.5
	c-3.5-2.6-7.6-4.1-12.8-4.6C254.7,410.2,253.3,410.1,252.4,410.1L252.4,410.1z M520.1,423.2c-1.7,0-3.4,0.2-5.1,0.5
	c-0.7,0.1-1.8,0.4-1.9,0.4c0,0,0.1,0.2,0.5,0.6c1.7,1.6,3.7,4.1,4.9,6.2l0.2,0.3l0.3,0.1c1.6,0.6,4,1.2,5.9,1.3c0.3,0,0.6,0,0.7,0.1
	l0,0c0.1,0,0.8,0,1.7,0c1.2,0,1.7,0,2.3-0.1c2.3-0.2,4.3-0.7,6.4-1.4c0.9-0.3,1.3-0.5,1.3-0.5c0-0.1-1-1-1.6-1.5
	c-3.4-2.9-7.2-4.8-11-5.6C523.3,423.4,521.7,423.2,520.1,423.2L520.1,423.2z M486.2,423.9c-0.2,0-0.4,0-0.4,0c0,0,0.1,0.3,0.4,0.8
	c2.2,4.4,5.5,8.2,9.1,10.5c3.4,2.1,7.6,3.4,12.1,3.7c0.6,0,2.2,0.1,2.2,0c0-0.1-0.8-1.7-1.1-2.2c-0.4-0.8-0.9-1.5-1.4-2.2l-0.4-0.6
	l-0.7-0.5c-1.1-0.8-1.8-1.3-2.8-2.3c-0.9-0.9-1.7-1.8-2.5-2.8c-0.4-0.5-0.4-0.5-0.9-0.8c-3-1.8-6.6-3-10.6-3.4
	C488.2,424,486.9,423.9,486.2,423.9L486.2,423.9z M105.7,424.4c-0.4,0-0.9,0-1.3,0c-2,0.1-3.5,0.3-5.3,0.8c-3.1,0.8-6.1,2.4-8.9,4.6
	c-1.8,1.4-3.5,3.3-4.9,5.2l-0.1,0.1l0.2,0c0.1,0,0.2,0.1,0.3,0.1c0,0,0.1,0,0.8-0.3c1.7-0.7,3.7-1.3,5.5-1.6
	c1.1-0.2,1.7-0.2,3.2-0.2c2.1,0,3.5,0.1,5.6,0.5l0.6,0.1l0.8-0.4c0.9-0.5,1.5-0.8,2.3-1.3c2.5-1.7,4.7-3.8,6.6-6.3
	c0.4-0.5,0.5-0.7,0.4-0.7c-0.1,0-1.1-0.2-1.8-0.3C108.4,424.5,107,424.4,105.7,424.4L105.7,424.4z M360.6,425.4c-0.8,0-1.5,0-2,0.1
	l-0.7,0.1l-0.6,0.6c-1.7,1.5-3.2,2.7-4.9,3.7c-0.3,0.2-0.6,0.3-0.6,0.3c0,0,0.2,0.2,0.5,0.3c3,2,6.2,3.3,9.3,4
	c0.8,0.2,1.5,0.2,2.8,0.3c0.5,0,2.4,0,3-0.1c2.4-0.2,4.6-0.7,6.9-1.5c0.7-0.2,1.8-0.7,2.3-0.9l0.3-0.1l-0.5-0.4
	c-4.2-3.5-9.3-5.8-13.9-6.3C362.1,425.4,361.3,425.4,360.6,425.4L360.6,425.4z M23.5,426.6c-0.7,0-1.4,0-1.8,0
	c-2.9,0.2-5.6,0.8-8.4,1.9c-0.3,0.1-0.5,0.2-0.5,0.2c0,0,0.9,0.8,1.3,1.2c2.7,2.3,5.4,3.9,8.4,5c2,0.7,4.1,1.1,6.4,1.3l0,0
	c0.5,0,2.4,0,2.9,0c0.6,0,1.9-0.2,2.2-0.2l0.2,0l-0.6-0.4c-1.1-0.8-2.3-1.9-3.2-2.8c-0.5-0.5-1-1.1-1-1.1c0.1-0.1,1.4-0.6,1.9-0.8
	c0.7-0.3,2.2-0.8,2.8-1c0.2-0.1,0.4-0.1,0.4-0.1c0-0.1-1.6-0.9-2.4-1.2c-1.5-0.7-3.2-1.2-4.6-1.5c-0.6-0.1-1.5-0.2-2.4-0.3
	C24.9,426.6,24.2,426.6,23.5,426.6L23.5,426.6z M305.6,434.2c-0.7,0-1.4,0-1.8,0.1c-2.8,0.3-5.3,0.8-7.8,1.8
	c-0.8,0.3-1.8,0.7-1.8,0.7c0,0,0.8,0.7,1.4,1.2c2.9,2.2,6.2,3.9,9.4,4.9c1.7,0.5,3,0.7,4.7,0.8c3.2,0.1,6.5-0.4,9.7-1.5
	c1.3-0.4,2.8-1,2.8-1.1c0,0-0.3-0.2-0.6-0.5c-1.8-1.5-3.8-2.8-5.8-3.8c-0.6-0.3-0.7-0.3-1.3-0.5c-1.8-0.4-3.5-0.9-5.3-1.6
	c-0.4-0.2-0.8-0.3-0.9-0.3C308,434.3,306.8,434.2,305.6,434.2L305.6,434.2z M571.1,436.1c-3.4,0-7.1,0.7-10.3,2
	c-0.4,0.2-0.5,0.1,0.3,0.8c3.1,2.8,6.6,4.8,10.3,5.9c0.2,0.1,0.4,0.1,0.4,0.1c0,0,0.1-0.3,0.1-0.6c0.1-0.3,0.1-0.6,0.2-0.7
	c0-0.1,0.1,0,0.6,0.3c0.8,0.4,1.5,0.9,2.5,1.6c0.1,0.1,0.3,0.1,1.5,0.2c0.1,0,0.6,0,1,0c3.2,0,6.8-0.7,10-1.9l0.4-0.2l-0.4-0.3
	c-3.5-3.3-7.5-5.6-11.7-6.6C574.5,436.3,572.8,436.1,571.1,436.1L571.1,436.1z M277.3,437.4c-2.7,0-5.5,0.4-8.3,1.3
	c-0.7,0.2-1.9,0.6-2.2,0.8l-0.2,0.1l0.5,0.4c3,2.8,6.5,4.9,9.9,6c1.8,0.6,3.8,0.9,5.6,1c3.2,0.2,6.8-0.3,10.2-1.4
	c0.7-0.2,1.4-0.5,1.5-0.5c0.1-0.1-1-1-2-1.9c-2.2-1.8-4.8-3.3-7.3-4.3c-1.2-0.5-3-1-4-1.1C279.7,437.5,278.5,437.4,277.3,437.4
	L277.3,437.4z M37.9,439.1C37.8,439.1,37.8,439.1,37.9,439.1c-0.1,0,0,0.3,0.1,0.5c0.7,1.8,1.6,3.7,2.6,5.3c1.8,3,4.2,5.5,6.6,7.1
	c3,2,6.8,3.4,10.6,4.1c0.7,0.1,1,0.1,1.7,0.2c0.5,0.1,0.5,0.1,0.5-0.1c0-0.1-0.1-0.4-0.3-0.8c-1.1-2.9-2.7-5.7-4.6-8
	c-0.8-1-1.9-2.1-2.9-2.9c-1.4-1.1-3.3-2.3-5.4-3.2c-1.2-0.5-1.6-0.6-2.6-0.8c-1.1-0.2-1.9-0.4-2.9-0.8c-0.8-0.3-1.2-0.3-2.4-0.5
	C38.3,439.1,38,439.1,37.9,439.1L37.9,439.1z M57,439.8l-0.4,0.1c-0.2,0.1-0.4,0.1-0.4,0.1c0,0,0.3,0.9,0.7,1.7
	c1.6,3.6,3.7,6.7,6.2,9c1,0.9,1.8,1.5,2.9,2.2c3.3,2.1,7.3,3.4,11.5,3.9c0.4,0,0.7,0.1,0.7,0.1c0.1,0,0.1,0.1-0.2-0.8
	c-1.4-3.7-3.4-7-6-9.6c-1.1-1.2-2-1.9-3.2-2.6c-3.1-2.1-7.2-3.5-11.3-4.1L57,439.8z M73.1,442.9c0,0,0.8,0.8,1.4,1.3
	c1.2,1,2.7,2.1,4.1,2.9c1.3,0.8,3.3,1.7,4.6,2.1c2,0.6,3.9,1,6.2,1.1c0.5,0,1.7,0,2.4,0c2.3-0.1,4.5-0.5,6.7-1.2
	c0.7-0.2,2-0.7,2.2-0.8c0,0-0.1-0.2-0.5-0.6c-0.9-0.9-1.6-1.4-2.5-2.1c-0.6-0.4-2.1-1.5-2.2-1.5c-0.1,0-0.3,0.1-0.7,0.2
	c-2.4,0.9-4.6,1.4-7.4,1.5c-3.2,0.2-7.1-0.4-10.4-1.5c-0.4-0.1-0.6-0.2-0.9-0.2c-1.1-0.1-2.1-0.5-2.8-1.1
	C73.2,443,73.1,442.9,73.1,442.9L73.1,442.9z"/>
<path id="path2264" class="st3" d="M382.5,399.1c-0.6,0-1.1,0-1.4,0c-3.6,0.3-7,1.4-10.4,3.4c-1.2,0.7-2.5,1.7-3.5,2.5l-0.5,0.4
	l0.3,0.1c1.9,0.9,4.2,1.7,6.5,2.2c0.3,0.1,0.5,0.1,0.6,0.1c0,0,0.3-0.1,0.7-0.3c2.1-0.8,4.3-1.2,6.8-1.5c1.4-0.1,3.6-0.1,5.2,0.1
	c0.3,0,0.7,0.1,0.8,0.1c0.1,0,0.4-0.1,1.2-0.5c0.6-0.3,1.4-0.7,1.7-0.9c0.8-0.5,2.2-1.4,2.9-1.9c0.4-0.3,0.6-0.4,0.7-0.7
	c0.1-0.2,0.2-0.3,0.3-0.4c0.1-0.1,0-0.1-0.5-0.3c-2.9-1.3-5.7-2-8.7-2.3C384.4,399.1,383.4,399.1,382.5,399.1L382.5,399.1z
	 M413.8,399.8c0,0-0.1,0-0.3,0.1c-2.7,1.3-6.3,2.1-9.5,2.4c-1,0.1-1,0.1-1.1,0.2c0,0.1-0.2,0.4-0.4,0.7l-0.3,0.6l0,0.2
	c0.1,0.7,0,1.6-0.2,2.2c-0.3,0.7-0.8,1.5-1.5,1.9c-0.2,0.1-0.2,0.2-0.5,1.3c-0.5,2-0.8,3.9-0.9,6.2l0,0.5l0.1-0.1
	c1.7-0.7,4-2,5.7-3.3c4.4-3.3,7.3-7.4,8.7-12.4C413.8,400.1,413.8,399.8,413.8,399.8C413.8,399.8,413.8,399.8,413.8,399.8
	L413.8,399.8z M447.8,403.8c0,0-0.1,0.8-0.2,1.5c-0.2,2-0.2,4.3,0.1,6.3c0.5,4.1,2,7.8,4.4,11c1.8,2.5,4.5,4.9,7.1,6.6
	c0.3,0.2,0.4,0.2,0.4,0.2c0-0.1,0.1-1,0.2-1.8c0.1-0.9,0.1-3.1,0.1-4.1c-0.2-2.7-0.7-5.2-1.5-7.5c-0.4-1-0.4-1-1-1.5
	c-2.3-2-4.5-4.8-6.2-8c-0.2-0.4-0.2-0.4-0.6-0.7C449.9,405.1,447.9,403.7,447.8,403.8L447.8,403.8z M177.7,406.9
	c-0.2,0-1.2,0.3-2,0.6c-3.3,1.1-6.3,2.7-8.7,4.7c-1,0.8-2.1,1.9-3,3c-2.7,3.1-4.6,7.3-5.4,11.8c-0.1,0.3-0.1,0.6-0.1,0.6
	c0,0,0.1,0,1-0.2c5.1-1.5,9.6-4.2,12.6-7.8c2.7-3.2,4.6-7.4,5.6-12C177.7,407.2,177.7,406.9,177.7,406.9
	C177.7,406.9,177.7,406.9,177.7,406.9L177.7,406.9z M230.9,407.6c-0.7,0-1.3,0-1.3,0c-0.1,0.1,0.9,1.8,1.6,2.8
	c1.1,1.6,2.3,3.1,3.7,4.4c4.2,4.1,9.8,6.4,16.3,6.7c1,0,2.9,0,3-0.1c0,0-0.1-0.3-0.3-0.6c-2.2-3.9-5.1-7.2-8.4-9.4
	c-3.5-2.3-7.7-3.6-12.6-3.9C232.4,407.6,231.6,407.5,230.9,407.6L230.9,407.6z M156.5,416.3l-0.4,0.1c-2.7,0.9-5.7,2.6-7.9,4.4
	c-4.4,3.5-7.3,8.3-8.5,14.2c-0.2,1.1-0.3,1.6-0.5,3.4h0c0,0.1,0,0.2,0,0.2c0,0,0.9-0.3,1.4-0.5c5.1-2,9.2-5.3,12-9.5
	c2.1-3.2,3.5-7.2,4-11.4c0-0.4,0.1-0.7,0.1-0.8L156.5,416.3z M323.7,426.2c-1.3,0-2.6,0.1-3.8,0.3c-4,0.7-8.2,2.8-11.6,5.6l-0.5,0.4
	l0.5,0.2c0.9,0.5,2.5,1.1,3.8,1.4c2,0.6,4.1,1,6.2,1.2c0.7,0.1,3,0,3.7-0.1c2.1-0.2,4.5-0.9,6.8-1.9c1-0.5,2.8-1.4,2.7-1.4
	c0,0,0.5-0.9,0.9-1.4c0.4-0.5,0.9-1.2,1.4-1.8l0.5-0.6l-0.2-0.1c-0.7-0.3-2.3-0.8-3.5-1.1C328.1,426.4,325.9,426.1,323.7,426.2
	L323.7,426.2z M42.4,430c-2.7,0-5.5,0.4-8.3,1.3c-1,0.3-2.4,0.8-2.4,0.9c0,0,1,1,1.5,1.4c3.1,2.6,6.5,4.4,9.9,5.3
	c1.5,0.4,3.4,0.7,4.8,0.7c3.5,0.2,7.2-0.4,10.8-1.7c0.8-0.3,0.7-0.2,0.5-0.5c-0.6-0.6-2.1-1.9-3.1-2.6c-3.2-2.3-6.9-4-10.2-4.5
	C44.8,430.1,43.7,430,42.4,430z M573.1,445.8C573,445.8,573,445.8,573.1,445.8c0,0.1-0.2,0.9-0.2,1.8c-0.1,0.9-0.1,3.2-0.1,4.2
	c0.3,4.5,1.5,8.2,3.8,11.7c1.8,2.8,4.5,5.5,7.6,7.5c0.4,0.3,0.7,0.5,0.7,0.5c0.1,0,0.2-1.7,0.3-2.9c0.2-4.5-0.7-9.2-2.5-12.6
	c-1.9-3.4-4.5-6.4-7.9-9C574,446.3,573.2,445.8,573.1,445.8L573.1,445.8z"/>
</svg>
